<?xml version="1.0" encoding="utf-8"?>
<!-- Generator: Adobe Illustrator 25.3.1, SVG Export Plug-In . SVG Version: 6.00 Build 0)  -->
<svg version="1.1" id="Capa_1" xmlns="http://www.w3.org/2000/svg" xmlns:xlink="http://www.w3.org/1999/xlink" x="0px" y="0px"
	 viewBox="0 0 1080 1080" style="enable-background:new 0 0 1080 1080;" xml:space="preserve">
<g>
	<g>
		<g>
			<path d="M946.9,396.9l-85.8,97.7l-33.4-97.7H736L661.8,673L620,394.9h-92.2l-173.7,253l-38-253H224L31.8,675h101.3l24.2-37.3
				h97.3l4.8,37.3h177.5l24.2-37.3h97.3l4.8,37.3h189.1l36.9-137.8l37.3,98.9h1.6l90.6-98.9L881.8,675h92.5l74.7-278H946.9z
				 M198.6,571.7l43.3-67.5l7.5,67.5H198.6z M502.5,571.7l43.3-67.5l7.5,67.5H502.5z"/>
		</g>
	</g>
</g>
</svg>
